STARTFONT 2.1
FONT -sun-chevaraoutline-medium-r-normal--10-100-75-75-p-84-adobe-fontspecific
SIZE 10 75 75
FONTBOUNDINGBOX 21 14 -3 -3

STARTPROPERTIES 28
FOUNDRY "sun"
FAMILY_NAME "chevaraoutline"
WEIGHT_NAME "medium"
SLANT "r"
SETWIDTH_NAME "normal"
ADD_STYLE_NAME ""
PIXEL_SIZE 10
POINT_SIZE 100
RESOLUTION_X 75
RESOLUTION_Y 75
SPACING "p"
AVERAGE_WIDTH 84
CHARSET_REGISTRY "adobe"
CHARSET_ENCODING "fontspecific"
COPYRIGHT "© 1999 Sun Microsystems, Inc."
RAW_PIXELSIZE 1000
RAW_POINTSIZE 964
RAW_ASCENT 1047
RAW_DESCENT 285
RAW_AVERAGE_WIDTH 8051
FACE_NAME "ChevaraOutlineNormal¿ŸD@5"
_XMBDFED_INFO "Edited with xmbdfed 2.4."
WEIGHT 10
X_HEIGHT -1
QUAD_WIDTH 8
DEFAULT_CHAR 4
FONT_DESCENT 3
FONT_ASCENT 11
ENDPROPERTIES

CHARS 202

STARTCHAR char32
ENCODING 32
SWIDTH 43 0
DWIDTH 5 0
BBX 0 0 0 0
BITMAP
ENDCHAR

STARTCHAR char33
ENCODING 33
SWIDTH 34 0
DWIDTH 4 0
BBX 3 8 1 0
BITMAP
40
A0
A0
A0
40
40
60
60
ENDCHAR

STARTCHAR char34
ENCODING 34
SWIDTH 43 0
DWIDTH 5 0
BBX 5 3 1 5
BITMAP
50
F8
48
ENDCHAR

STARTCHAR char35
ENCODING 35
SWIDTH 51 0
DWIDTH 6 0
BBX 5 8 0 0
BITMAP
28
28
78
30
30
F8
50
50
ENDCHAR

STARTCHAR char36
ENCODING 36
SWIDTH 7 0
DWIDTH 11 0
BBX 9 9 2 -1
BITMAP
0C00
3E80
6D80
BC80
FF80
8C80
EF80
DF80
0C00
ENDCHAR

STARTCHAR char37
ENCODING 37
SWIDTH 41 0
DWIDTH 15 0
BBX 14 7 2 0
BITMAP
7C40
AC40
BCB8
6D6C
3A6C
046C
0478
ENDCHAR

STARTCHAR char38
ENCODING 38
SWIDTH 7 0
DWIDTH 11 0
BBX 10 7 2 0
BITMAP
3E00
3A00
2DC0
7580
AB00
A700
7F00
ENDCHAR

STARTCHAR char39
ENCODING 39
SWIDTH 25 0
DWIDTH 3 0
BBX 2 3 1 5
BITMAP
40
80
C0
ENDCHAR

STARTCHAR char40
ENCODING 40
SWIDTH 43 0
DWIDTH 5 0
BBX 4 8 1 0
BITMAP
10
60
60
A0
A0
A0
60
30
ENDCHAR

STARTCHAR char41
ENCODING 41
SWIDTH 43 0
DWIDTH 5 0
BBX 4 8 1 0
BITMAP
80
40
60
50
50
50
60
C0
ENDCHAR

STARTCHAR char42
ENCODING 42
SWIDTH 34 0
DWIDTH 4 0
BBX 3 3 1 4
BITMAP
40
40
A0
ENDCHAR

STARTCHAR char43
ENCODING 43
SWIDTH 60 0
DWIDTH 7 0
BBX 6 6 2 0
BITMAP
20
20
FC
20
20
20
ENDCHAR

STARTCHAR char44
ENCODING 44
SWIDTH 25 0
DWIDTH 3 0
BBX 2 3 1 -1
BITMAP
C0
C0
40
ENDCHAR

STARTCHAR char45
ENCODING 45
SWIDTH 43 0
DWIDTH 5 0
BBX 4 1 1 3
BITMAP
F0
ENDCHAR

STARTCHAR char46
ENCODING 46
SWIDTH 25 0
DWIDTH 3 0
BBX 2 2 1 0
BITMAP
C0
C0
ENDCHAR

STARTCHAR char47
ENCODING 47
SWIDTH 51 0
DWIDTH 6 0
BBX 6 7 1 0
BITMAP
08
08
10
20
40
40
80
ENDCHAR

STARTCHAR char48
ENCODING 48
SWIDTH 86 0
DWIDTH 10 0
BBX 9 7 2 0
BITMAP
7E00
6500
A480
A480
A480
6500
7E00
ENDCHAR

STARTCHAR char49
ENCODING 49
SWIDTH 60 0
DWIDTH 7 0
BBX 6 8 1 0
BITMAP
08
F8
28
28
28
28
28
FC
ENDCHAR

STARTCHAR char50
ENCODING 50
SWIDTH 77 0
DWIDTH 9 0
BBX 8 7 2 0
BITMAP
FE
EA
AA
5C
7D
C2
3E
ENDCHAR

STARTCHAR char51
ENCODING 51
SWIDTH 77 0
DWIDTH 9 0
BBX 8 7 2 0
BITMAP
FE
EA
0C
1C
EA
EA
7E
ENDCHAR

STARTCHAR char52
ENCODING 52
SWIDTH 77 0
DWIDTH 9 0
BBX 8 8 2 0
BITMAP
04
0C
14
74
94
F7
14
3C
ENDCHAR

STARTCHAR char53
ENCODING 53
SWIDTH 77 0
DWIDTH 9 0
BBX 9 8 1 0
BITMAP
2080
3F00
7C00
7C00
0700
6500
E500
3E00
ENDCHAR

STARTCHAR char54
ENCODING 54
SWIDTH 86 0
DWIDTH 10 0
BBX 8 7 2 0
BITMAP
7F
67
BE
A5
A5
65
7E
ENDCHAR

STARTCHAR char55
ENCODING 55
SWIDTH 77 0
DWIDTH 9 0
BBX 7 7 2 0
BITMAP
FE
FE
8C
18
38
28
30
ENDCHAR

STARTCHAR char56
ENCODING 56
SWIDTH 86 0
DWIDTH 10 0
BBX 8 7 2 0
BITMAP
FF
E1
5E
42
BD
83
7E
ENDCHAR

STARTCHAR char57
ENCODING 57
SWIDTH 86 0
DWIDTH 10 0
BBX 8 7 2 0
BITMAP
FE
A5
A5
E5
7D
A6
7C
ENDCHAR

STARTCHAR char58
ENCODING 58
SWIDTH 34 0
DWIDTH 4 0
BBX 3 5 1 0
BITMAP
60
60
00
E0
E0
ENDCHAR

STARTCHAR char59
ENCODING 59
SWIDTH 34 0
DWIDTH 4 0
BBX 3 6 1 -1
BITMAP
E0
E0
00
60
E0
20
ENDCHAR

STARTCHAR char60
ENCODING 60
SWIDTH 60 0
DWIDTH 7 0
BBX 6 5 0 0
BITMAP
18
20
C0
30
0C
ENDCHAR

STARTCHAR char61
ENCODING 61
SWIDTH 60 0
DWIDTH 7 0
BBX 7 2 1 2
BITMAP
FE
FE
ENDCHAR

STARTCHAR char62
ENCODING 62
SWIDTH 60 0
DWIDTH 7 0
BBX 5 5 1 0
BITMAP
C0
30
18
60
80
ENDCHAR

STARTCHAR char63
ENCODING 63
SWIDTH 51 0
DWIDTH 6 0
BBX 6 7 1 0
BITMAP
FC
BC
74
38
20
30
70
ENDCHAR

STARTCHAR char64
ENCODING 64
SWIDTH 7 0
DWIDTH 11 0
BBX 8 8 1 0
BITMAP
1C
22
5B
A5
A5
AD
7E
3C
ENDCHAR

STARTCHAR char65
ENCODING 65
SWIDTH 7 0
DWIDTH 11 0
BBX 10 7 2 0
BITMAP
0C00
0C00
3A00
2A00
3900
4500
E780
ENDCHAR

STARTCHAR char66
ENCODING 66
SWIDTH 7 0
DWIDTH 11 0
BBX 10 7 2 0
BITMAP
FF80
5280
5280
5D00
5280
5280
7F00
ENDCHAR

STARTCHAR char67
ENCODING 67
SWIDTH 86 0
DWIDTH 10 0
BBX 9 7 2 0
BITMAP
7180
6080
A080
A000
A080
6180
3E00
ENDCHAR

STARTCHAR char68
ENCODING 68
SWIDTH 16 0
DWIDTH 12 0
BBX 10 7 2 0
BITMAP
FF80
5140
5140
5140
5140
51C0
7F00
ENDCHAR

STARTCHAR char69
ENCODING 69
SWIDTH 7 0
DWIDTH 11 0
BBX 9 7 2 0
BITMAP
7F80
5180
5680
5E00
5200
5080
FF80
ENDCHAR

STARTCHAR char70
ENCODING 70
SWIDTH 86 0
DWIDTH 10 0
BBX 9 7 2 0
BITMAP
7F80
5080
5200
5E00
5200
5000
FC00
ENDCHAR

STARTCHAR char71
ENCODING 71
SWIDTH 16 0
DWIDTH 12 0
BBX 11 7 2 0
BITMAP
3F80
F080
A000
A780
A140
5140
3FC0
ENDCHAR

STARTCHAR char72
ENCODING 72
SWIDTH 24 0
DWIDTH 13 0
BBX 12 7 2 0
BITMAP
FFF0
2940
2940
2F40
2940
2940
FAE0
ENDCHAR

STARTCHAR char73
ENCODING 73
SWIDTH 60 0
DWIDTH 7 0
BBX 7 7 1 0
BITMAP
3C
28
28
28
28
28
FE
ENDCHAR

STARTCHAR char74
ENCODING 74
SWIDTH 68 0
DWIDTH 8 0
BBX 8 7 1 0
BITMAP
3F
14
14
14
74
B4
FC
ENDCHAR

STARTCHAR char75
ENCODING 75
SWIDTH 24 0
DWIDTH 13 0
BBX 13 7 2 0
BITMAP
78F8
4900
4A00
4D00
4A80
4940
FFE0
ENDCHAR

STARTCHAR char76
ENCODING 76
SWIDTH 86 0
DWIDTH 10 0
BBX 9 7 2 0
BITMAP
FC00
5000
5000
5000
5080
7180
5F80
ENDCHAR

STARTCHAR char77
ENCODING 77
SWIDTH 41 0
DWIDTH 15 0
BBX 14 7 2 0
BITMAP
F87C
3CB0
34D0
2AD0
2750
2650
F27C
ENDCHAR

STARTCHAR char78
ENCODING 78
SWIDTH 7 0
DWIDTH 11 0
BBX 11 7 2 0
BITMAP
7880
6480
5A80
4580
4280
4380
F080
ENDCHAR

STARTCHAR char79
ENCODING 79
SWIDTH 16 0
DWIDTH 12 0
BBX 10 7 2 0
BITMAP
7F80
5140
9140
9140
9140
7140
3F80
ENDCHAR

STARTCHAR char80
ENCODING 80
SWIDTH 7 0
DWIDTH 11 0
BBX 10 7 2 0
BITMAP
FFC0
5140
5140
5F80
5000
5000
7800
ENDCHAR

STARTCHAR char81
ENCODING 81
SWIDTH 16 0
DWIDTH 12 0
BBX 11 8 2 -1
BITMAP
7F80
5140
9140
9140
9740
5740
32A0
0FE0
ENDCHAR

STARTCHAR char82
ENCODING 82
SWIDTH 7 0
DWIDTH 11 0
BBX 10 7 2 0
BITMAP
3F80
3280
5680
5900
5500
5700
FFC0
ENDCHAR

STARTCHAR char83
ENCODING 83
SWIDTH 7 0
DWIDTH 11 0
BBX 10 7 2 0
BITMAP
7F80
C080
BF00
7080
4F40
40C0
FF80
ENDCHAR

STARTCHAR char84
ENCODING 84
SWIDTH 86 0
DWIDTH 10 0
BBX 9 7 2 0
BITMAP
FF80
8C80
8C80
1400
1400
1400
3C00
ENDCHAR

STARTCHAR char85
ENCODING 85
SWIDTH 7 0
DWIDTH 11 0
BBX 10 7 2 0
BITMAP
FD80
5080
5080
5080
5080
5080
3F00
ENDCHAR

STARTCHAR char86
ENCODING 86
SWIDTH 7 0
DWIDTH 11 0
BBX 11 7 2 0
BITMAP
FFE0
2880
2900
1500
1600
0C00
0400
ENDCHAR

STARTCHAR char87
ENCODING 87
SWIDTH 50 0
DWIDTH 16 0
BBX 16 7 2 0
BITMAP
FFEF
28A4
1564
155C
0A50
0A30
0E30
ENDCHAR

STARTCHAR char88
ENCODING 88
SWIDTH 7 0
DWIDTH 11 0
BBX 11 7 2 0
BITMAP
FDE0
2D00
1200
0B00
1500
1480
F3C0
ENDCHAR

STARTCHAR char89
ENCODING 89
SWIDTH 7 0
DWIDTH 11 0
BBX 10 7 2 0
BITMAP
FBC0
4900
2B00
1400
1400
1400
1F00
ENDCHAR

STARTCHAR char90
ENCODING 90
SWIDTH 77 0
DWIDTH 9 0
BBX 8 7 2 0
BITMAP
FF
92
22
44
99
B7
FF
ENDCHAR

STARTCHAR char91
ENCODING 91
SWIDTH 43 0
DWIDTH 5 0
BBX 4 7 2 0
BITMAP
F0
C0
C0
C0
C0
C0
C0
ENDCHAR

STARTCHAR char92
ENCODING 92
SWIDTH 25 0
DWIDTH 3 0
BBX 3 8 0 0
BITMAP
80
80
40
40
40
20
20
20
ENDCHAR

STARTCHAR char93
ENCODING 93
SWIDTH 43 0
DWIDTH 5 0
BBX 4 7 1 0
BITMAP
F0
50
50
50
50
50
F0
ENDCHAR

STARTCHAR char94
ENCODING 94
SWIDTH 0 0
DWIDTH 0 0
BBX 4 3 -2 7
BITMAP
60
B0
B0
ENDCHAR

STARTCHAR char95
ENCODING 95
SWIDTH 51 0
DWIDTH 6 0
BBX 6 1 0 -2
BITMAP
FC
ENDCHAR

STARTCHAR char96
ENCODING 96
SWIDTH 0 0
DWIDTH 0 0
BBX 3 2 -2 7
BITMAP
40
60
ENDCHAR

STARTCHAR char97
ENCODING 97
SWIDTH 77 0
DWIDTH 9 0
BBX 9 6 2 0
BITMAP
1800
1800
3400
3400
7A00
E780
ENDCHAR

STARTCHAR char98
ENCODING 98
SWIDTH 77 0
DWIDTH 9 0
BBX 8 6 2 0
BITMAP
7E
65
7A
65
65
7F
ENDCHAR

STARTCHAR char99
ENCODING 99
SWIDTH 68 0
DWIDTH 8 0
BBX 8 6 1 0
BITMAP
3F
E1
A0
A0
61
3E
ENDCHAR

STARTCHAR char100
ENCODING 100
SWIDTH 86 0
DWIDTH 10 0
BBX 9 6 2 0
BITMAP
FE00
6300
6280
6280
6380
FE00
ENDCHAR

STARTCHAR char101
ENCODING 101
SWIDTH 77 0
DWIDTH 9 0
BBX 7 6 2 0
BITMAP
7E
62
7C
64
62
7E
ENDCHAR

STARTCHAR char102
ENCODING 102
SWIDTH 68 0
DWIDTH 8 0
BBX 7 6 2 0
BITMAP
FE
62
78
68
60
60
ENDCHAR

STARTCHAR char103
ENCODING 103
SWIDTH 86 0
DWIDTH 10 0
BBX 8 6 2 0
BITMAP
7F
A1
A0
AF
E5
7F
ENDCHAR

STARTCHAR char104
ENCODING 104
SWIDTH 7 0
DWIDTH 11 0
BBX 10 6 2 0
BITMAP
FFC0
5300
5F00
5300
5300
FFC0
ENDCHAR

STARTCHAR char105
ENCODING 105
SWIDTH 51 0
DWIDTH 6 0
BBX 5 6 1 0
BITMAP
F8
50
50
50
50
70
ENDCHAR

STARTCHAR char106
ENCODING 106
SWIDTH 60 0
DWIDTH 7 0
BBX 7 6 1 0
BITMAP
7E
18
18
58
D8
F8
ENDCHAR

STARTCHAR char107
ENCODING 107
SWIDTH 7 0
DWIDTH 11 0
BBX 10 6 2 0
BITMAP
73C0
5200
5400
5A00
5500
FFC0
ENDCHAR

STARTCHAR char108
ENCODING 108
SWIDTH 77 0
DWIDTH 9 0
BBX 7 6 2 0
BITMAP
78
60
60
60
66
7E
ENDCHAR

STARTCHAR char109
ENCODING 109
SWIDTH 16 0
DWIDTH 12 0
BBX 11 6 2 0
BITMAP
71C0
6940
5B40
5740
4D40
EFE0
ENDCHAR

STARTCHAR char110
ENCODING 110
SWIDTH 86 0
DWIDTH 10 0
BBX 9 6 2 0
BITMAP
7180
6900
5500
4B00
4500
E700
ENDCHAR

STARTCHAR char111
ENCODING 111
SWIDTH 86 0
DWIDTH 10 0
BBX 8 6 2 0
BITMAP
7E
A5
A5
A5
65
7E
ENDCHAR

STARTCHAR char112
ENCODING 112
SWIDTH 77 0
DWIDTH 9 0
BBX 8 6 2 0
BITMAP
FF
65
67
7C
60
F8
ENDCHAR

STARTCHAR char113
ENCODING 113
SWIDTH 86 0
DWIDTH 10 0
BBX 9 7 2 -1
BITMAP
7E00
A500
A500
AD00
6D00
7E80
0300
ENDCHAR

STARTCHAR char114
ENCODING 114
SWIDTH 77 0
DWIDTH 9 0
BBX 8 6 2 0
BITMAP
7F
6D
77
6A
6E
E7
ENDCHAR

STARTCHAR char115
ENCODING 115
SWIDTH 77 0
DWIDTH 9 0
BBX 8 6 2 0
BITMAP
FE
E2
9E
7D
85
FE
ENDCHAR

STARTCHAR char116
ENCODING 116
SWIDTH 77 0
DWIDTH 9 0
BBX 8 6 1 0
BITMAP
FF
95
95
14
14
3E
ENDCHAR

STARTCHAR char117
ENCODING 117
SWIDTH 77 0
DWIDTH 9 0
BBX 8 6 2 0
BITMAP
F7
62
62
62
62
7C
ENDCHAR

STARTCHAR char118
ENCODING 118
SWIDTH 77 0
DWIDTH 9 0
BBX 9 6 1 0
BITMAP
FB80
2900
1A00
1600
0C00
0800
ENDCHAR

STARTCHAR char119
ENCODING 119
SWIDTH 24 0
DWIDTH 13 0
BBX 13 6 2 0
BITMAP
7710
5290
2DA0
2D60
18C0
08C0
ENDCHAR

STARTCHAR char120
ENCODING 120
SWIDTH 86 0
DWIDTH 10 0
BBX 10 6 1 0
BITMAP
39C0
1A00
0C00
0A00
1500
FBC0
ENDCHAR

STARTCHAR char121
ENCODING 121
SWIDTH 77 0
DWIDTH 9 0
BBX 8 6 1 0
BITMAP
F9
29
1A
14
14
3E
ENDCHAR

STARTCHAR char122
ENCODING 122
SWIDTH 68 0
DWIDTH 8 0
BBX 7 6 1 0
BITMAP
FE
92
24
4A
52
7E
ENDCHAR

STARTCHAR char123
ENCODING 123
SWIDTH 34 0
DWIDTH 4 0
BBX 3 9 0 -2
BITMAP
60
40
40
40
80
40
40
40
60
ENDCHAR

STARTCHAR char124
ENCODING 124
SWIDTH 25 0
DWIDTH 3 0
BBX 1 8 1 0
BITMAP
80
80
80
80
80
80
80
80
ENDCHAR

STARTCHAR char125
ENCODING 125
SWIDTH 34 0
DWIDTH 4 0
BBX 3 9 0 -2
BITMAP
C0
40
40
60
20
40
40
40
C0
ENDCHAR

STARTCHAR char126
ENCODING 126
SWIDTH 0 0
DWIDTH 0 0
BBX 6 2 -3 8
BITMAP
64
FC
ENDCHAR

STARTCHAR char128
ENCODING 128
SWIDTH 86 0
DWIDTH 10 0
BBX 10 7 1 0
BITMAP
38C0
3040
F840
7800
5040
30C0
1F00
ENDCHAR

STARTCHAR char130
ENCODING 130
SWIDTH 25 0
DWIDTH 3 0
BBX 2 3 1 -1
BITMAP
C0
C0
40
ENDCHAR

STARTCHAR char131
ENCODING 131
SWIDTH 0 0
DWIDTH 0 0
BBX 4 3 -2 7
BITMAP
60
B0
B0
ENDCHAR

STARTCHAR char132
ENCODING 132
SWIDTH 43 0
DWIDTH 5 0
BBX 5 3 1 -1
BITMAP
50
F8
48
ENDCHAR

STARTCHAR char133
ENCODING 133
SWIDTH 7 0
DWIDTH 11 0
BBX 7 1 2 0
BITMAP
92
ENDCHAR

STARTCHAR char134
ENCODING 134
SWIDTH 51 0
DWIDTH 6 0
BBX 6 6 1 1
BITMAP
38
30
D4
FC
94
18
ENDCHAR

STARTCHAR char136
ENCODING 136
SWIDTH 0 0
DWIDTH 0 0
BBX 3 3 -1 6
BITMAP
C0
C0
E0
ENDCHAR

STARTCHAR char139
ENCODING 139
SWIDTH 34 0
DWIDTH 4 0
BBX 2 4 1 1
BITMAP
40
80
80
40
ENDCHAR

STARTCHAR char140
ENCODING 140
SWIDTH 59 0
DWIDTH 17 0
BBX 15 7 3 0
BITMAP
7FFE
5142
A148
A178
A14A
7146
3FFE
ENDCHAR

STARTCHAR char142
ENCODING 142
SWIDTH 86 0
DWIDTH 10 0
BBX 0 0 0 0
BITMAP
ENDCHAR

STARTCHAR char144
ENCODING 144
SWIDTH 86 0
DWIDTH 10 0
BBX 0 0 0 0
BITMAP
ENDCHAR

STARTCHAR char145
ENCODING 145
SWIDTH 25 0
DWIDTH 3 0
BBX 2 2 1 5
BITMAP
80
C0
ENDCHAR

STARTCHAR char146
ENCODING 146
SWIDTH 25 0
DWIDTH 3 0
BBX 3 2 0 5
BITMAP
E0
20
ENDCHAR

STARTCHAR char147
ENCODING 147
SWIDTH 43 0
DWIDTH 5 0
BBX 5 3 1 4
BITMAP
90
E8
50
ENDCHAR

STARTCHAR char148
ENCODING 148
SWIDTH 43 0
DWIDTH 5 0
BBX 5 2 1 5
BITMAP
F8
48
ENDCHAR

STARTCHAR char149
ENCODING 149
SWIDTH 34 0
DWIDTH 4 0
BBX 3 3 0 2
BITMAP
E0
E0
E0
ENDCHAR

STARTCHAR char150
ENCODING 150
SWIDTH 86 0
DWIDTH 10 0
BBX 8 1 2 3
BITMAP
FF
ENDCHAR

STARTCHAR char151
ENCODING 151
SWIDTH 60 0
DWIDTH 7 0
BBX 7 1 1 3
BITMAP
FE
ENDCHAR

STARTCHAR char152
ENCODING 152
SWIDTH 0 0
DWIDTH 0 0
BBX 6 3 -3 6
BITMAP
64
78
50
ENDCHAR

STARTCHAR char153
ENCODING 153
SWIDTH 41 0
DWIDTH 15 0
BBX 13 7 3 4
BITMAP
FE18
AB30
2330
22B0
22D0
2290
66B8
ENDCHAR

STARTCHAR char155
ENCODING 155
SWIDTH 34 0
DWIDTH 4 0
BBX 2 4 1 1
BITMAP
80
80
C0
80
ENDCHAR

STARTCHAR char156
ENCODING 156
SWIDTH 33 0
DWIDTH 14 0
BBX 13 6 2 0
BITMAP
7FF8
6288
A2E0
A2A0
6288
3FF8
ENDCHAR

STARTCHAR char159
ENCODING 159
SWIDTH 7 0
DWIDTH 11 0
BBX 10 10 2 0
BITMAP
3A00
1600
0000
FF80
4900
2D00
1600
1400
1400
1F00
ENDCHAR

STARTCHAR char160
ENCODING 160
SWIDTH 77 0
DWIDTH 9 0
BBX 0 0 0 0
BITMAP
ENDCHAR

STARTCHAR char161
ENCODING 161
SWIDTH 34 0
DWIDTH 4 0
BBX 2 7 1 0
BITMAP
C0
C0
40
C0
C0
C0
C0
ENDCHAR

STARTCHAR char162
ENCODING 162
SWIDTH 68 0
DWIDTH 8 0
BBX 8 8 1 -1
BITMAP
08
3F
E9
A8
A8
69
3E
04
ENDCHAR

STARTCHAR char163
ENCODING 163
SWIDTH 86 0
DWIDTH 10 0
BBX 9 7 2 0
BITMAP
7F80
5280
5100
DE00
5080
5180
FF80
ENDCHAR

STARTCHAR char164
ENCODING 164
SWIDTH 0 0
DWIDTH 0 0
BBX 2 2 0 8
BITMAP
C0
80
ENDCHAR

STARTCHAR char165
ENCODING 165
SWIDTH 0 0
DWIDTH 0 0
BBX 4 2 -2 8
BITMAP
D0
70
ENDCHAR

STARTCHAR char166
ENCODING 166
SWIDTH 86 0
DWIDTH 10 0
BBX 0 0 0 0
BITMAP
ENDCHAR

STARTCHAR char167
ENCODING 167
SWIDTH 77 0
DWIDTH 9 0
BBX 7 11 2 -3
BITMAP
04
FC
E4
9C
C2
FE
BE
72
4A
C6
B8
ENDCHAR

STARTCHAR char168
ENCODING 168
SWIDTH 0 0
DWIDTH 0 0
BBX 4 1 -2 7
BITMAP
F0
ENDCHAR

STARTCHAR char169
ENCODING 169
SWIDTH 24 0
DWIDTH 13 0
BBX 11 11 3 0
BITMAP
1E00
2180
4F40
9320
B120
A020
A020
B1A0
4E40
6080
1F00
ENDCHAR

STARTCHAR char170
ENCODING 170
SWIDTH 0 0
DWIDTH 0 0
BBX 5 2 -3 8
BITMAP
68
78
ENDCHAR

STARTCHAR char171
ENCODING 171
SWIDTH 43 0
DWIDTH 5 0
BBX 4 3 1 2
BITMAP
50
A0
50
ENDCHAR

STARTCHAR char172
ENCODING 172
SWIDTH 16 0
DWIDTH 12 0
BBX 11 5 2 0
BITMAP
FFE0
0020
0020
0020
0020
ENDCHAR

STARTCHAR char174
ENCODING 174
SWIDTH 24 0
DWIDTH 13 0
BBX 11 11 3 0
BITMAP
1E00
2180
5E40
9340
9320
9C20
9620
9220
5940
6080
1F00
ENDCHAR

STARTCHAR char176
ENCODING 176
SWIDTH 60 0
DWIDTH 7 0
BBX 5 5 2 6
BITMAP
60
98
88
98
60
ENDCHAR

STARTCHAR char177
ENCODING 177
SWIDTH 77 0
DWIDTH 9 0
BBX 8 10 2 0
BITMAP
10
10
10
FF
10
10
10
10
00
FF
ENDCHAR

STARTCHAR char179
ENCODING 179
SWIDTH 86 0
DWIDTH 10 0
BBX 0 0 0 0
BITMAP
ENDCHAR

STARTCHAR char180
ENCODING 180
SWIDTH 0 0
DWIDTH 0 0
BBX 2 2 0 7
BITMAP
80
80
ENDCHAR

STARTCHAR char181
ENCODING 181
SWIDTH 86 0
DWIDTH 10 0
BBX 0 0 0 0
BITMAP
ENDCHAR

STARTCHAR char182
ENCODING 182
SWIDTH 60 0
DWIDTH 7 0
BBX 5 9 1 -2
BITMAP
78
D0
D0
50
50
50
50
50
50
ENDCHAR

STARTCHAR char183
ENCODING 183
SWIDTH 25 0
DWIDTH 3 0
BBX 1 2 1 2
BITMAP
80
80
ENDCHAR

STARTCHAR char184
ENCODING 184
SWIDTH 0 0
DWIDTH 0 0
BBX 2 2 -1 -2
BITMAP
C0
40
ENDCHAR

STARTCHAR char185
ENCODING 185
SWIDTH 86 0
DWIDTH 10 0
BBX 0 0 0 0
BITMAP
ENDCHAR

STARTCHAR char186
ENCODING 186
SWIDTH 0 0
DWIDTH 0 0
BBX 6 2 -3 8
BITMAP
64
FC
ENDCHAR

STARTCHAR char187
ENCODING 187
SWIDTH 43 0
DWIDTH 5 0
BBX 4 3 1 2
BITMAP
50
50
50
ENDCHAR

STARTCHAR char188
ENCODING 188
SWIDTH 86 0
DWIDTH 10 0
BBX 0 0 0 0
BITMAP
ENDCHAR

STARTCHAR char191
ENCODING 191
SWIDTH 51 0
DWIDTH 6 0
BBX 6 7 1 0
BITMAP
10
30
10
F0
BC
DC
7C
ENDCHAR

STARTCHAR char192
ENCODING 192
SWIDTH 7 0
DWIDTH 11 0
BBX 10 10 2 0
BITMAP
1800
0800
0400
0C00
1400
2A00
2A00
3900
4580
E780
ENDCHAR

STARTCHAR char193
ENCODING 193
SWIDTH 7 0
DWIDTH 11 0
BBX 10 10 2 0
BITMAP
0400
0400
0400
0C00
1400
2A00
2A00
3900
4580
E780
ENDCHAR

STARTCHAR char194
ENCODING 194
SWIDTH 7 0
DWIDTH 11 0
BBX 10 10 2 0
BITMAP
0C00
1600
1600
0C00
1400
2A00
2A00
3900
4580
E780
ENDCHAR

STARTCHAR char195
ENCODING 195
SWIDTH 7 0
DWIDTH 11 0
BBX 10 10 2 0
BITMAP
1900
7F00
0400
0C00
1400
2A00
2A00
3900
4580
E780
ENDCHAR

STARTCHAR char196
ENCODING 196
SWIDTH 7 0
DWIDTH 11 0
BBX 10 10 2 0
BITMAP
1A00
1E00
0400
0C00
1200
2A00
2900
3900
4480
F780
ENDCHAR

STARTCHAR char197
ENCODING 197
SWIDTH 7 0
DWIDTH 11 0
BBX 10 10 2 0
BITMAP
0C00
0E00
0C00
0C00
1400
2A00
2A00
3900
4580
E780
ENDCHAR

STARTCHAR char198
ENCODING 198
SWIDTH 50 0
DWIDTH 16 0
BBX 15 7 2 0
BITMAP
03FE
0542
0958
0978
1F4A
2146
FBFE
ENDCHAR

STARTCHAR char199
ENCODING 199
SWIDTH 86 0
DWIDTH 10 0
BBX 9 9 2 -2
BITMAP
7180
6080
A080
A000
A080
6100
3B00
0C00
0C00
ENDCHAR

STARTCHAR char200
ENCODING 200
SWIDTH 7 0
DWIDTH 11 0
BBX 9 10 2 0
BITMAP
1800
0800
0000
7F80
5180
5680
5E00
5200
5080
FF80
ENDCHAR

STARTCHAR char201
ENCODING 201
SWIDTH 7 0
DWIDTH 11 0
BBX 9 10 2 0
BITMAP
0400
0800
0000
7F80
5180
5680
5E00
5200
5080
FF80
ENDCHAR

STARTCHAR char202
ENCODING 202
SWIDTH 7 0
DWIDTH 11 0
BBX 9 10 2 0
BITMAP
0C00
1400
1600
7F80
5180
5680
5E00
5200
5080
FF80
ENDCHAR

STARTCHAR char203
ENCODING 203
SWIDTH 7 0
DWIDTH 11 0
BBX 9 10 2 0
BITMAP
1E00
1E00
0000
7F80
5980
5A80
5E00
5A00
5880
FF80
ENDCHAR

STARTCHAR char204
ENCODING 204
SWIDTH 60 0
DWIDTH 7 0
BBX 7 10 1 0
BITMAP
20
10
00
3C
28
28
28
28
28
FE
ENDCHAR

STARTCHAR char205
ENCODING 205
SWIDTH 60 0
DWIDTH 7 0
BBX 7 10 1 0
BITMAP
18
10
00
3C
28
28
28
28
28
FE
ENDCHAR

STARTCHAR char206
ENCODING 206
SWIDTH 60 0
DWIDTH 7 0
BBX 7 10 1 0
BITMAP
18
38
28
3C
28
28
28
28
28
FE
ENDCHAR

STARTCHAR char207
ENCODING 207
SWIDTH 60 0
DWIDTH 7 0
BBX 7 10 1 0
BITMAP
6C
6C
00
3C
38
38
38
38
38
FE
ENDCHAR

STARTCHAR char209
ENCODING 209
SWIDTH 7 0
DWIDTH 11 0
BBX 11 10 2 0
BITMAP
1D00
3F00
0000
7880
7480
4A80
4580
4280
4380
F080
ENDCHAR

STARTCHAR char210
ENCODING 210
SWIDTH 16 0
DWIDTH 12 0
BBX 10 10 2 0
BITMAP
0C00
0400
0000
7F80
5140
9140
9140
9140
7140
3F80
ENDCHAR

STARTCHAR char211
ENCODING 211
SWIDTH 16 0
DWIDTH 12 0
BBX 10 10 2 0
BITMAP
0600
0400
0000
7F80
5140
9140
9140
9140
7140
3F80
ENDCHAR

STARTCHAR char212
ENCODING 212
SWIDTH 16 0
DWIDTH 12 0
BBX 10 10 2 0
BITMAP
0600
0E00
0B00
7E80
5140
9140
9140
9140
7140
3F80
ENDCHAR

STARTCHAR char213
ENCODING 213
SWIDTH 16 0
DWIDTH 12 0
BBX 10 10 2 0
BITMAP
0D00
1F00
0000
7F80
5140
9140
9140
9140
7140
3F80
ENDCHAR

STARTCHAR char214
ENCODING 214
SWIDTH 16 0
DWIDTH 12 0
BBX 10 11 2 -1
BITMAP
0B00
1B00
0000
7F80
5140
9140
9140
9140
5140
3180
0E00
ENDCHAR

STARTCHAR char216
ENCODING 216
SWIDTH 16 0
DWIDTH 12 0
BBX 10 8 2 0
BITMAP
0080
7F80
5140
9740
9940
9940
5140
7F80
ENDCHAR

STARTCHAR char217
ENCODING 217
SWIDTH 7 0
DWIDTH 11 0
BBX 10 10 2 0
BITMAP
1800
0800
0000
FD80
5080
5080
5080
5080
5080
3F00
ENDCHAR

STARTCHAR char218
ENCODING 218
SWIDTH 7 0
DWIDTH 11 0
BBX 10 10 2 0
BITMAP
0400
0400
0000
FD80
5080
5080
5080
5080
5080
3F00
ENDCHAR

STARTCHAR char219
ENCODING 219
SWIDTH 7 0
DWIDTH 11 0
BBX 10 10 2 0
BITMAP
0C00
1600
1600
FD80
5080
5080
5080
5080
5080
3F00
ENDCHAR

STARTCHAR char220
ENCODING 220
SWIDTH 7 0
DWIDTH 11 0
BBX 10 10 2 0
BITMAP
1B00
0B00
0000
FD80
5080
5080
5080
5080
5180
3E00
ENDCHAR

STARTCHAR char223
ENCODING 223
SWIDTH 50 0
DWIDTH 16 0
BBX 16 7 1 0
BITMAP
3202
4E7F
F2F2
CECE
7E7D
C5C3
FE7E
ENDCHAR

STARTCHAR char224
ENCODING 224
SWIDTH 77 0
DWIDTH 9 0
BBX 10 9 1 0
BITMAP
0800
0C00
0000
0C00
0C00
1A00
1A00
3D00
F3C0
ENDCHAR

STARTCHAR char225
ENCODING 225
SWIDTH 77 0
DWIDTH 9 0
BBX 10 9 1 0
BITMAP
0400
0400
0000
0C00
0C00
1A00
1A00
3D00
F3C0
ENDCHAR

STARTCHAR char226
ENCODING 226
SWIDTH 77 0
DWIDTH 9 0
BBX 10 9 1 0
BITMAP
0C00
0C00
0E00
0C00
0C00
1A00
1A00
3D00
F3C0
ENDCHAR

STARTCHAR char227
ENCODING 227
SWIDTH 77 0
DWIDTH 9 0
BBX 9 9 2 0
BITMAP
1200
3C00
2800
1800
1800
3400
3400
7A00
E780
ENDCHAR

STARTCHAR char228
ENCODING 228
SWIDTH 77 0
DWIDTH 9 0
BBX 8 8 1 0
BITMAP
1E
00
0C
0C
1A
1A
3D
E7
ENDCHAR

STARTCHAR char229
ENCODING 229
SWIDTH 77 0
DWIDTH 9 0
BBX 9 9 1 0
BITMAP
0400
0C00
0C00
0C00
0C00
1A00
1A00
3500
FF80
ENDCHAR

STARTCHAR char230
ENCODING 230
SWIDTH 33 0
DWIDTH 14 0
BBX 12 6 2 0
BITMAP
07F0
0D10
15C0
1540
3D10
6FF0
ENDCHAR

STARTCHAR char231
ENCODING 231
SWIDTH 68 0
DWIDTH 8 0
BBX 8 9 1 -2
BITMAP
1D
73
61
A0
A0
6F
3E
0C
0C
ENDCHAR

STARTCHAR char232
ENCODING 232
SWIDTH 77 0
DWIDTH 9 0
BBX 7 9 2 0
BITMAP
30
10
00
7E
62
7C
64
62
7E
ENDCHAR

STARTCHAR char233
ENCODING 233
SWIDTH 77 0
DWIDTH 9 0
BBX 7 9 2 0
BITMAP
08
18
00
7E
62
7C
64
62
7E
ENDCHAR

STARTCHAR char234
ENCODING 234
SWIDTH 77 0
DWIDTH 9 0
BBX 7 9 2 0
BITMAP
18
38
28
FE
62
7C
64
62
7E
ENDCHAR

STARTCHAR char235
ENCODING 235
SWIDTH 77 0
DWIDTH 9 0
BBX 7 9 2 0
BITMAP
20
7C
00
FE
62
7C
64
62
7E
ENDCHAR

STARTCHAR char236
ENCODING 236
SWIDTH 51 0
DWIDTH 6 0
BBX 5 9 1 0
BITMAP
60
20
00
F8
50
50
50
50
70
ENDCHAR

STARTCHAR char237
ENCODING 237
SWIDTH 51 0
DWIDTH 6 0
BBX 5 9 1 0
BITMAP
20
60
00
F8
50
50
50
50
70
ENDCHAR

STARTCHAR char238
ENCODING 238
SWIDTH 51 0
DWIDTH 6 0
BBX 5 9 1 0
BITMAP
30
70
50
F8
50
50
50
50
70
ENDCHAR

STARTCHAR char239
ENCODING 239
SWIDTH 51 0
DWIDTH 6 0
BBX 5 9 1 0
BITMAP
40
F0
00
F8
70
70
70
70
70
ENDCHAR

STARTCHAR char241
ENCODING 241
SWIDTH 86 0
DWIDTH 10 0
BBX 9 9 2 0
BITMAP
1A00
3E00
2800
5180
6900
5500
4B00
4500
E700
ENDCHAR

STARTCHAR char242
ENCODING 242
SWIDTH 86 0
DWIDTH 10 0
BBX 8 9 2 0
BITMAP
10
18
00
7E
A5
A5
A5
65
7E
ENDCHAR

STARTCHAR char243
ENCODING 243
SWIDTH 86 0
DWIDTH 10 0
BBX 8 9 2 0
BITMAP
08
08
00
7E
A5
A5
A5
65
7E
ENDCHAR

STARTCHAR char244
ENCODING 244
SWIDTH 86 0
DWIDTH 10 0
BBX 8 9 2 0
BITMAP
18
18
1C
6A
A5
A5
A5
65
7E
ENDCHAR

STARTCHAR char245
ENCODING 245
SWIDTH 86 0
DWIDTH 10 0
BBX 8 9 2 0
BITMAP
1A
3E
28
7E
A5
A5
A5
65
7E
ENDCHAR

STARTCHAR char246
ENCODING 246
SWIDTH 86 0
DWIDTH 10 0
BBX 8 9 2 0
BITMAP
24
3C
00
7E
A5
A5
A5
65
7E
ENDCHAR

STARTCHAR char247
ENCODING 247
SWIDTH 77 0
DWIDTH 9 0
BBX 8 6 2 1
BITMAP
18
18
FF
00
18
18
ENDCHAR

STARTCHAR char248
ENCODING 248
SWIDTH 86 0
DWIDTH 10 0
BBX 8 6 2 0
BITMAP
7E
A5
AD
B5
A5
FE
ENDCHAR

STARTCHAR char249
ENCODING 249
SWIDTH 77 0
DWIDTH 9 0
BBX 8 9 2 0
BITMAP
10
18
00
F7
62
62
62
62
7C
ENDCHAR

STARTCHAR char250
ENCODING 250
SWIDTH 77 0
DWIDTH 9 0
BBX 8 9 2 0
BITMAP
08
08
00
F7
62
62
62
62
7C
ENDCHAR

STARTCHAR char251
ENCODING 251
SWIDTH 77 0
DWIDTH 9 0
BBX 8 9 2 0
BITMAP
18
28
2C
F7
62
62
62
62
7C
ENDCHAR

STARTCHAR char252
ENCODING 252
SWIDTH 77 0
DWIDTH 9 0
BBX 8 9 2 0
BITMAP
14
3E
00
F7
62
62
62
62
3C
ENDCHAR

STARTCHAR char255
ENCODING 255
SWIDTH 77 0
DWIDTH 9 0
BBX 8 9 1 0
BITMAP
10
1E
00
FD
29
26
14
14
3E
ENDCHAR
ENDFONT
